#N canvas 74 473 954 698 10;
#N canvas 788 122 945 806 tt-passthru 0;
#X obj 499 32 loadbang;
#X obj 500 63 delay 300;
#X msg 500 101 1;
#X msg 458 128 open;
#X obj 502 171 terminal_tedium_adc;
#X obj 213 209 tedium_input 4;
#X obj 54 208 tedium_input 23;
#X obj 212 260 tedium_input 17;
#X obj 208 315 tedium_input 14;
#X obj 208 369 tedium_input 27;
#X obj 47 273 tedium_input 25;
#X obj 46 331 tedium_input 24;
#X obj 326 568 tedium_output 12;
#X obj 322 503 tedium_output 16;
#X text 192 173 gate inputs 0-3;
#X text 26 174 tact sw 0-2;
#X text 544 149 adc 0-5;
#X text 352 487 top;
#X text 361 548 bottom;
#X text 400 412 switchLED;
#X obj 323 440 tedium_output 26;
#X obj 213 234 s ttD1;
#X obj 213 289 s ttD2;
#X obj 208 340 s ttD3;
#X obj 209 393 s ttD4;
#X obj 55 242 s ttUP;
#X obj 48 305 s ttDOWN;
#X obj 322 468 r ttTopLED;
#X obj 325 530 r ttBottomLED;
#X obj 504 350 / 4095;
#X obj 581 347 / 4095;
#X obj 605 396 / 4095;
#X obj 633 443 / 4095;
#X obj 529 408 / 4095;
#X obj 555 460 / 4095;
#X obj 504 376 s knob1;
#X obj 529 434 s knob2;
#X obj 555 487 s knob3;
#X obj 581 372 s knob4;
#N canvas 0 50 450 300 removenoise 0;
#X obj 99 26 inlet;
#X obj 288 94 f;
#X obj 99 173 i;
#X obj 99 199 change;
#X text 315 125 smooth and remove noise;
#X obj 99 228 outlet;
#X obj 99 53 t f b;
#X obj 99 123 expr ($f1*(($f2*-1)+1))+($f3*$f2);
#X obj 60 96 sel 0;
#X obj 60 144 0;
#X msg 202 88 0.3;
#X connect 0 0 6 0;
#X connect 1 0 7 2;
#X connect 2 0 3 0;
#X connect 3 0 5 0;
#X connect 6 0 8 0;
#X connect 6 1 10 0;
#X connect 7 0 1 0;
#X connect 7 0 2 0;
#X connect 8 0 9 0;
#X connect 8 1 7 0;
#X connect 9 0 1 0;
#X connect 9 0 10 0;
#X connect 9 0 7 0;
#X connect 10 0 7 1;
#X restore 502 202 pd removenoise;
#N canvas 0 50 450 300 removenoise 0;
#X obj 99 26 inlet;
#X obj 288 94 f;
#X obj 99 173 i;
#X obj 99 199 change;
#X text 315 125 smooth and remove noise;
#X obj 99 228 outlet;
#X obj 99 53 t f b;
#X obj 99 123 expr ($f1*(($f2*-1)+1))+($f3*$f2);
#X obj 60 96 sel 0;
#X obj 60 144 0;
#X msg 202 88 0.3;
#X connect 0 0 6 0;
#X connect 1 0 7 2;
#X connect 2 0 3 0;
#X connect 3 0 5 0;
#X connect 6 0 8 0;
#X connect 6 1 10 0;
#X connect 7 0 1 0;
#X connect 7 0 2 0;
#X connect 8 0 9 0;
#X connect 8 1 7 0;
#X connect 9 0 1 0;
#X connect 9 0 10 0;
#X connect 9 0 7 0;
#X connect 10 0 7 1;
#X restore 528 229 pd removenoise;
#N canvas 0 50 450 300 removenoise 0;
#X obj 99 26 inlet;
#X obj 288 94 f;
#X obj 99 173 i;
#X obj 99 199 change;
#X text 315 125 smooth and remove noise;
#X obj 99 228 outlet;
#X obj 99 53 t f b;
#X obj 99 123 expr ($f1*(($f2*-1)+1))+($f3*$f2);
#X obj 60 96 sel 0;
#X obj 60 144 0;
#X msg 202 88 0.3;
#X connect 0 0 6 0;
#X connect 1 0 7 2;
#X connect 2 0 3 0;
#X connect 3 0 5 0;
#X connect 6 0 8 0;
#X connect 6 1 10 0;
#X connect 7 0 1 0;
#X connect 7 0 2 0;
#X connect 8 0 9 0;
#X connect 8 1 7 0;
#X connect 9 0 1 0;
#X connect 9 0 10 0;
#X connect 9 0 7 0;
#X connect 10 0 7 1;
#X restore 554 251 pd removenoise;
#N canvas 0 50 450 300 removenoise 0;
#X obj 99 26 inlet;
#X obj 288 94 f;
#X obj 99 173 i;
#X obj 99 199 change;
#X text 315 125 smooth and remove noise;
#X obj 99 228 outlet;
#X obj 99 53 t f b;
#X obj 99 123 expr ($f1*(($f2*-1)+1))+($f3*$f2);
#X obj 60 96 sel 0;
#X obj 60 144 0;
#X msg 202 88 0.3;
#X connect 0 0 6 0;
#X connect 1 0 7 2;
#X connect 2 0 3 0;
#X connect 3 0 5 0;
#X connect 6 0 8 0;
#X connect 6 1 10 0;
#X connect 7 0 1 0;
#X connect 7 0 2 0;
#X connect 8 0 9 0;
#X connect 8 1 7 0;
#X connect 9 0 1 0;
#X connect 9 0 10 0;
#X connect 9 0 7 0;
#X connect 10 0 7 1;
#X restore 581 275 pd removenoise;
#N canvas 0 50 450 300 removenoise 0;
#X obj 99 26 inlet;
#X obj 288 94 f;
#X obj 99 173 i;
#X obj 99 199 change;
#X text 315 125 smooth and remove noise;
#X obj 99 228 outlet;
#X obj 99 53 t f b;
#X obj 99 123 expr ($f1*(($f2*-1)+1))+($f3*$f2);
#X obj 60 96 sel 0;
#X obj 60 144 0;
#X msg 202 88 0.3;
#X connect 0 0 6 0;
#X connect 1 0 7 2;
#X connect 2 0 3 0;
#X connect 3 0 5 0;
#X connect 6 0 8 0;
#X connect 6 1 10 0;
#X connect 7 0 1 0;
#X connect 7 0 2 0;
#X connect 8 0 9 0;
#X connect 8 1 7 0;
#X connect 9 0 1 0;
#X connect 9 0 10 0;
#X connect 9 0 7 0;
#X connect 10 0 7 1;
#X restore 604 299 pd removenoise;
#N canvas 0 50 450 300 removenoise 0;
#X obj 99 26 inlet;
#X obj 288 94 f;
#X obj 99 173 i;
#X obj 99 199 change;
#X text 315 125 smooth and remove noise;
#X obj 99 228 outlet;
#X obj 99 53 t f b;
#X obj 99 123 expr ($f1*(($f2*-1)+1))+($f3*$f2);
#X obj 60 96 sel 0;
#X obj 60 144 0;
#X msg 202 88 0.3;
#X connect 0 0 6 0;
#X connect 1 0 7 2;
#X connect 2 0 3 0;
#X connect 3 0 5 0;
#X connect 6 0 8 0;
#X connect 6 1 10 0;
#X connect 7 0 1 0;
#X connect 7 0 2 0;
#X connect 8 0 9 0;
#X connect 8 1 7 0;
#X connect 9 0 1 0;
#X connect 9 0 10 0;
#X connect 9 0 7 0;
#X connect 10 0 7 1;
#X restore 633 324 pd removenoise;
#X text 547 564 aux;
#X text 3 270 ftsw;
#X obj 116 24 r led;
#X obj 116 50 % 8;
#X floatatom 253 139 5 0 0 0 - - -, f 5;
#X floatatom 257 43 5 0 0 0 - - -, f 5;
#X obj 181 40 div 4;
#X obj 190 89 div 2;
#X obj 181 63 expr $f1- 4*$f2;
#X floatatom 254 92 5 0 0 0 - - -, f 5;
#X obj 195 137 div 1;
#X obj 181 111 expr $f1- 2*$f2;
#X obj 309 52 s ttSWLED;
#X obj 307 95 s ttTopLED;
#X obj 305 135 s ttBottomLED;
#X obj 158 579 s ttSWLED;
#X obj 47 363 s ttLEDbutton;
#X obj 100 495 f;
#X obj 140 496 + 1;
#X msg 594 122 deadband 2;
#X obj 501 129 metro 10;
#X msg 633 142 smooth 4;
#X obj 100 523 mod 2;
#X obj 100 578 s fs;
#X obj 487 633 moses 1000;
#X obj 596 625 moses 1;
#X obj 488 747 print short press:;
#X obj 557 704 print long press:;
#X obj 596 674 print release;
#X obj 646 650 print push;
#X obj 643 599 s aux;
#X obj 368 381 r ttSWLED;
#X obj 323 413 r aux;
#X text 23 6 disabled weird 3-bit binary LED display;
#X obj 487 590 tedium_switch 24;
#X obj 99 464 moses 1000;
#X obj 208 456 moses 1;
#X obj 99 422 tedium_switch 25;
#X obj 605 421 s knob5;
#X obj 631 468 s vol;
#X connect 0 0 1 0;
#X connect 1 0 3 0;
#X connect 1 0 2 0;
#X connect 2 0 65 0;
#X connect 3 0 4 0;
#X connect 4 0 39 0;
#X connect 4 1 40 0;
#X connect 4 2 41 0;
#X connect 4 3 42 0;
#X connect 4 4 43 0;
#X connect 4 5 44 0;
#X connect 5 0 21 0;
#X connect 6 0 25 0;
#X connect 7 0 22 0;
#X connect 8 0 23 0;
#X connect 9 0 24 0;
#X connect 10 0 26 0;
#X connect 11 0 61 0;
#X connect 27 0 13 0;
#X connect 28 0 12 0;
#X connect 29 0 35 0;
#X connect 30 0 38 0;
#X connect 31 0 83 0;
#X connect 32 0 84 0;
#X connect 33 0 36 0;
#X connect 34 0 37 0;
#X connect 39 0 29 0;
#X connect 40 0 33 0;
#X connect 41 0 34 0;
#X connect 42 0 30 0;
#X connect 43 0 31 0;
#X connect 44 0 32 0;
#X connect 47 0 48 0;
#X connect 48 0 51 0;
#X connect 48 0 53 0;
#X connect 50 0 53 1;
#X connect 50 0 57 0;
#X connect 51 0 50 0;
#X connect 52 0 54 0;
#X connect 53 0 52 0;
#X connect 53 0 56 0;
#X connect 54 0 56 1;
#X connect 55 0 49 0;
#X connect 56 0 55 0;
#X connect 62 0 63 0;
#X connect 62 0 67 0;
#X connect 63 0 62 1;
#X connect 64 0 4 0;
#X connect 65 0 4 0;
#X connect 66 0 4 0;
#X connect 67 0 68 0;
#X connect 67 0 60 0;
#X connect 69 0 71 0;
#X connect 69 1 72 0;
#X connect 70 0 73 0;
#X connect 70 1 74 0;
#X connect 76 0 20 0;
#X connect 79 0 69 0;
#X connect 79 1 70 0;
#X connect 79 1 75 0;
#X connect 82 0 80 0;
#X connect 82 1 81 0;
#X connect 82 1 62 0;
#X restore 722 63 pd tt-passthru;
#N canvas 127 248 922 604 audioIO 0;
#X obj 513 336 dac~;
#X obj 578 102 catch~ outR;
#X obj 484 104 catch~ outL;
#X obj 192 166 adc~, f 6;
#X obj 285 245 s~ inR;
#X obj 110 244 s~ inL;
#X obj 487 273 *~;
#X obj 576 275 *~;
#X obj 810 69 r vol;
#X obj 810 122 *;
#X obj 810 95 t f f;
#X obj 810 150 sig~;
#X obj 810 176 lop~ 2;
#X obj 482 179 clip~ -1 1;
#X obj 571 179 clip~ -1 1;
#X text 268 34 Receives and sends audio to patch. Outgoing audio is
run through a compressor to provide some headroom if things get too
loud. Also sends values to the Organelle's OLED VU meter.;
#X obj 742 360 vsl 15 128 0 1 0 0 empty empty empty 0 -9 0 10 -262144
-1 -1 0 1;
#X obj 742 326 r vol;
#X obj 485 134 *~ 0.25;
#X obj 582 133 *~ 0.25;
#X connect 1 0 19 0;
#X connect 2 0 18 0;
#X connect 3 0 5 0;
#X connect 3 1 4 0;
#X connect 6 0 0 0;
#X connect 7 0 0 1;
#X connect 8 0 10 0;
#X connect 9 0 11 0;
#X connect 10 0 9 0;
#X connect 10 1 9 1;
#X connect 11 0 12 0;
#X connect 12 0 7 1;
#X connect 12 0 6 1;
#X connect 13 0 6 0;
#X connect 14 0 7 0;
#X connect 17 0 16 0;
#X connect 18 0 13 0;
#X connect 19 0 14 0;
#X restore 722 112 pd audioIO;
#N canvas 118 123 1711 763 MIDI 0;
#X obj 51 227 spigot 1;
#X obj 139 183 r midiInGate;
#X obj 51 257 t f b;
#X obj 51 295 / 127;
#X obj 51 317 s knob1;
#X obj 103 290 s knob1Override;
#X obj 51 188 change;
#X obj 250 223 spigot 1;
#X obj 338 179 r midiInGate;
#X obj 250 253 t f b;
#X obj 250 291 / 127;
#X obj 250 184 change;
#X obj 444 219 spigot 1;
#X obj 532 175 r midiInGate;
#X obj 444 249 t f b;
#X obj 444 287 / 127;
#X obj 444 180 change;
#X obj 642 218 spigot 1;
#X obj 730 174 r midiInGate;
#X obj 642 248 t f b;
#X obj 642 286 / 127;
#X obj 642 179 change;
#X obj 250 313 s knob2;
#X obj 444 309 s knob3;
#X obj 642 308 s knob4;
#X obj 302 286 s knob2Override;
#X obj 497 282 s knob3Override;
#X obj 694 280 s knob4Override;
#X obj 884 170 notein;
#X obj 884 206 pack;
#X obj 884 238 spigot 1;
#X obj 958 186 r midiInGate;
#X obj 884 271 s notes;
#X text 670 101 MIDI in;
#X text 570 473 MIDI out;
#X obj 444 153 ctlin 23 1;
#X obj 642 152 ctlin 24 1;
#X obj 51 160 ctlin 21 1;
#X obj 250 156 ctlin 22 1;
#X obj 1092 210 spigot 1;
#X obj 1180 166 r midiInGate;
#X obj 1092 151 ctlin 25 1;
#X obj 1092 298 s aux;
#X obj 1285 204 spigot 1;
#X obj 1373 160 r midiInGate;
#X obj 1285 153 ctlin 64 1;
#X obj 1285 301 s fs;
#X obj 1285 234 >= 64;
#X obj 1285 266 change;
#X obj 1092 239 >= 64;
#X obj 1092 271 change;
#X obj 1478 214 spigot 1;
#X obj 1566 170 r midiInGate;
#X obj 1478 244 t f b;
#X obj 1478 282 / 127;
#X obj 1478 175 change;
#X obj 1478 148 ctlin 26 1;
#X text 709 472 the 'raw' stuff comes directly from built in controls
;
#X text 553 23 This patch provides the default MIDI behavior. All MIDI
output and input can be suppressed by sending a 0 to midiOutGate and
midiInGate respectively.;
#X text 489 536 This desktop mother patch doesn't currently send any
MIDI;
#X obj 808 394 noteout;
#X floatatom 808 350 5 0 0 0 - - -, f 5;
#X obj 1478 304 s knob5;
#X obj 1530 277 s knob5Override;
#X connect 0 0 2 0;
#X connect 1 0 0 1;
#X connect 2 0 3 0;
#X connect 2 1 5 0;
#X connect 3 0 4 0;
#X connect 6 0 0 0;
#X connect 7 0 9 0;
#X connect 8 0 7 1;
#X connect 9 0 10 0;
#X connect 9 1 25 0;
#X connect 10 0 22 0;
#X connect 11 0 7 0;
#X connect 12 0 14 0;
#X connect 13 0 12 1;
#X connect 14 0 15 0;
#X connect 14 1 26 0;
#X connect 15 0 23 0;
#X connect 16 0 12 0;
#X connect 17 0 19 0;
#X connect 18 0 17 1;
#X connect 19 0 20 0;
#X connect 19 1 27 0;
#X connect 20 0 24 0;
#X connect 21 0 17 0;
#X connect 28 0 29 0;
#X connect 28 0 61 0;
#X connect 28 1 29 1;
#X connect 28 1 60 1;
#X connect 29 0 30 0;
#X connect 30 0 32 0;
#X connect 31 0 30 1;
#X connect 35 0 16 0;
#X connect 36 0 21 0;
#X connect 37 0 6 0;
#X connect 38 0 11 0;
#X connect 39 0 49 0;
#X connect 40 0 39 1;
#X connect 41 0 39 0;
#X connect 43 0 47 0;
#X connect 44 0 43 1;
#X connect 45 0 43 0;
#X connect 47 0 48 0;
#X connect 48 0 46 0;
#X connect 49 0 50 0;
#X connect 50 0 42 0;
#X connect 51 0 53 0;
#X connect 52 0 51 1;
#X connect 53 0 54 0;
#X connect 53 1 63 0;
#X connect 54 0 62 0;
#X connect 55 0 51 0;
#X connect 56 0 55 0;
#X connect 61 0 60 0;
#X restore 722 87 pd MIDI;
#X obj 332 283 throw~ outL;
#X obj 443 283 throw~ outR;
#X obj 438 82 r knob2;
#X obj 439 112 r knob3;
#X obj 438 143 r knob4;
#X obj 438 53 r knob1;
#X obj 439 173 r knob5;
#X obj 134 117 r~ inL;
#X obj 189 117 r~ inR;
#X text 65 114 audio in;
#X text 241 279 audio out;
#N canvas 241 50 612 483 crossfade 0;
#X obj 33 48 inlet~;
#X obj 211 67 inlet;
#X obj 39 327 outlet~;
#X obj 49 194 expr cos($f1 * 3.14159 / 2);
#X obj 244 194 expr sin($f1 * 3.14159 / 2);
#X obj 211 143 clip 0 1;
#N canvas 7 50 594 632 pan_core 0;
#X obj 21 106 inlet~;
#X obj 226 126 inlet;
#X obj 59 259 *~;
#X obj 123 303 outlet~;
#X obj 189 258 *~;
#X obj 205 234 line~;
#X obj 75 234 line~;
#X obj 96 127 inlet;
#X obj 179 104 inlet~;
#X text 223 350 comment;
#X obj 75 195 pack f 5;
#X obj 205 195 pack f 5;
#X text 202 346 Hans-Christoph Steiner \, 2004;
#X text 202 332 Adapted from [pan_core~];
#X connect 0 0 2 0;
#X connect 1 0 11 0;
#X connect 2 0 3 0;
#X connect 4 0 3 0;
#X connect 5 0 4 1;
#X connect 6 0 2 1;
#X connect 7 0 10 0;
#X connect 8 0 4 0;
#X connect 10 0 6 0;
#X connect 11 0 5 0;
#X restore 39 266 pd pan_core;
#X text 165 300 Adapted from [equal_power_pan~] \, Hans-Christoph Steiner
\, 2004;
#X text 320 312 comment;
#X obj 128 46 inlet~;
#X connect 0 0 6 0;
#X connect 1 0 5 0;
#X connect 3 0 6 1;
#X connect 4 0 6 3;
#X connect 5 0 3 0;
#X connect 5 0 4 0;
#X connect 6 0 2 0;
#X connect 9 0 6 2;
#X restore 728 222 pd crossfade;
#X obj 83 22 loadbang;
#X msg 119 54 \; pd dsp 1;
#X connect 15 0 16 0;
